<?xml version="1.0" standalone="no"?>
<!DOCTYPE svg PUBLIC "-//W3C//DTD SVG 20010904//EN"
 "http://www.w3.org/TR/2001/REC-SVG-20010904/DTD/svg10.dtd">
<svg version="1.0" xmlns="http://www.w3.org/2000/svg"
 width="1024.000000pt" height="1024.000000pt" viewBox="0 0 1024.000000 1024.000000"
 preserveAspectRatio="xMidYMid meet">

<g transform="translate(0.000000,1024.000000) scale(0.100000,-0.100000)"
fill="#000000" stroke="none">
<path d="M4984 9355 c-61 -19 -264 -87 -450 -151 -187 -64 -456 -155 -599
-201 -143 -47 -276 -93 -295 -103 -50 -26 -74 -72 -75 -145 0 -108 14 -118
301 -229 93 -35 193 -75 222 -87 l52 -22 -2 -201 -3 -200 -105 -12 c-472 -52
-818 -225 -1038 -519 -85 -114 -164 -276 -206 -425 l-22 -74 -76 -18 c-145
-33 -253 -107 -344 -235 -81 -113 -89 -177 -75 -618 8 -282 10 -304 33 -367
74 -199 224 -318 470 -372 20 -4 30 -16 39 -43 17 -55 91 -198 141 -275 136
-209 365 -395 582 -472 10 -3 17 -8 15 -10 -2 -3 -64 -18 -137 -35 -189 -43
-338 -117 -460 -226 l-49 -44 -79 14 c-103 19 -181 18 -289 0 -284 -50 -537
-241 -659 -498 -64 -135 -79 -201 -80 -342 0 -137 17 -198 81 -281 l35 -46
-71 -382 c-39 -209 -77 -426 -86 -481 -22 -143 -21 -141 -62 -166 -86 -50
-166 -146 -203 -239 -36 -90 -119 -624 -105 -677 8 -32 59 -53 132 -53 80 0
703 -57 840 -77 124 -18 149 -14 178 31 10 15 33 120 56 258 50 290 50 372 1
487 l-31 74 33 131 c19 72 42 176 52 231 9 55 19 96 20 90 2 -5 10 -77 19
-160 21 -211 61 -446 91 -540 125 -394 389 -638 809 -751 89 -23 128 -27 345
-35 444 -15 1603 -21 2095 -11 464 10 483 12 576 36 235 62 409 154 563 297
102 95 159 174 222 304 87 180 123 336 161 689 9 92 21 166 25 166 4 0 8 -10
8 -22 0 -33 36 -214 66 -331 l25 -99 -30 -72 c-41 -98 -47 -167 -26 -306 27
-191 65 -404 75 -427 13 -32 65 -56 109 -50 172 23 834 87 905 87 78 0 109 11
132 45 15 23 16 36 5 128 -16 139 -68 463 -82 512 -30 107 -124 231 -207 274
-22 11 -43 29 -46 38 -3 10 -44 238 -92 506 l-86 488 36 52 c63 91 80 155 80
292 -1 107 -4 130 -32 215 -59 176 -149 308 -283 414 -221 175 -524 253 -755
195 -43 -11 -45 -10 -82 23 -135 122 -328 211 -549 255 -73 14 -83 18 -62 26
178 70 309 154 429 276 133 134 247 315 299 473 11 33 17 38 60 47 185 40 370
176 440 324 16 34 34 87 41 117 29 139 19 739 -14 830 -21 57 -72 122 -144
183 -80 67 -144 102 -237 127 -44 12 -86 25 -94 29 -7 4 -24 45 -38 91 -51
179 -185 403 -323 540 -209 208 -502 333 -900 383 l-105 13 0 199 0 200 95 37
c52 20 160 62 239 93 80 31 158 63 173 71 45 23 68 70 68 139 0 70 -21 112
-71 143 -86 52 -1354 475 -1463 487 -29 4 -73 -5 -152 -30z m-645 -749 c-2 -2
-15 -9 -29 -15 -24 -11 -24 -11 -6 3 16 13 49 24 35 12z m131 -371 l0 -195
-45 0 c-43 0 -45 1 -44 28 l1 27 8 -25 c4 -14 9 -18 10 -10 5 40 1 312 -4 317
-3 4 -6 -11 -6 -33 0 -29 -3 -35 -10 -24 -5 8 -10 29 -10 45 0 25 6 33 38 47
65 28 62 37 62 -177z m-83 -67 c-3 -8 -6 -5 -6 6 -1 11 2 17 5 13 3 -3 4 -12
1 -19z m1598 -389 c546 -24 729 -86 950 -321 152 -161 234 -315 274 -515 19
-91 20 -146 23 -758 3 -657 3 -660 -20 -749 -42 -166 -130 -323 -251 -450
-118 -122 -231 -186 -427 -239 l-119 -32 -1305 -3 -1305 -3 -85 27 c-244 75
-455 228 -584 423 -64 98 -92 160 -123 278 l-26 98 2 640 c3 790 6 826 113
1039 56 112 122 198 236 308 181 173 315 221 692 248 356 26 1475 31 1955 9z
m-3225 -1128 l0 -89 -32 -13 c-58 -23 -130 -83 -171 -144 -14 -21 -28 -32 -32
-26 -9 16 -25 13 -25 -5 0 -8 5 -12 10 -9 17 11 11 -19 -10 -45 l-20 -25 0 93
c0 84 3 98 31 155 18 34 52 82 78 106 42 41 129 91 159 91 9 0 12 -24 12 -89z
m4735 49 c7 0 16 -7 19 -16 8 -22 7 -34 -3 -34 -5 0 -8 7 -7 16 0 9 -4 19 -11
21 -7 3 -13 -10 -16 -34 -2 -25 -4 -17 -4 22 0 33 1 52 4 43 2 -10 10 -18 18
-18z m63 1 c31 -16 71 -44 88 -63 46 -49 90 -125 47 -80 -10 10 -25 32 -34 48
-9 16 -22 28 -30 26 -8 -2 -11 0 -7 3 10 10 -31 41 -87 66 -25 11 -45 22 -45
24 0 9 10 5 68 -24z m-8 -41 c0 -5 -5 -10 -11 -10 -5 0 -7 5 -4 10 3 6 8 10
11 10 2 0 4 -4 4 -10z m-15 -42 c-19 -5 -33 -3 -40 4 -7 8 -5 9 6 5 9 -3 22
-1 29 3 8 5 19 6 24 2 6 -3 -3 -9 -19 -14z m30 -28 c-3 -5 -12 -10 -18 -10 -7
0 -6 4 3 10 19 12 23 12 15 0z m62 -40 c-1 -11 -5 -20 -9 -20 -3 0 -6 9 -5 20
1 11 5 20 9 20 3 0 6 -9 5 -20z m47 -1 c-6 -11 -24 -2 -24 11 0 5 7 7 15 4 8
-4 12 -10 9 -15z m70 -65 c3 -8 2 -12 -4 -9 -6 3 -10 10 -10 16 0 14 7 11 14
-7z m-1859 -2034 c474 -12 737 -45 939 -117 283 -101 467 -298 544 -582 26
-96 26 -97 24 -461 -2 -536 -25 -934 -73 -1265 -50 -355 -123 -509 -323 -687
-156 -140 -249 -194 -385 -224 -131 -30 -1401 -42 -2391 -24 -540 10 -559 12
-723 69 -164 57 -381 250 -463 413 -117 230 -175 717 -188 1578 -5 320 6 558
30 640 73 254 296 476 566 564 152 49 420 79 881 96 286 10 1153 11 1562 0z
m-3185 -400 c-30 -5 -37 -8 -20 -10 14 -1 28 -2 33 -1 4 0 7 -4 7 -9 0 -6 -12
-8 -27 -4 -22 4 -25 3 -13 -5 14 -10 13 -12 -10 -15 -5 0 -10 -5 -9 -10 0 -5
-33 -23 -73 -41 -189 -83 -325 -229 -406 -440 -22 -56 -50 -188 -54 -252 l-3
-42 -23 22 c-53 49 -67 93 -66 212 0 95 4 119 28 180 64 164 168 276 331 356
121 59 155 67 265 66 70 0 77 -1 40 -7z m-450 -1161 c92 -37 117 -43 202 -47
54 -2 96 -7 94 -11 -2 -3 -20 -98 -41 -211 -33 -186 -99 -516 -110 -547 -3 -9
-14 -7 -38 7 -86 51 -257 100 -347 100 -23 0 -40 5 -40 11 0 11 115 687 126
741 5 26 7 27 27 13 12 -7 69 -33 127 -56z m5885 39 c3 -13 30 -174 60 -358
30 -184 57 -347 60 -362 4 -27 3 -28 -36 -28 -74 0 -193 -31 -286 -75 -91 -43
-93 -43 -98 -22 -29 127 -59 277 -81 392 -20 112 -64 355 -64 361 0 1 44 4 98
6 91 4 104 7 212 55 63 28 118 51 122 52 4 0 10 -9 13 -21z m-6012 -997 c10
-11 6 -12 -21 -6 -23 5 -32 3 -30 -5 3 -13 -80 -42 -99 -35 -7 2 -13 -2 -13
-9 0 -7 -25 -25 -55 -40 -30 -14 -55 -31 -55 -35 0 -15 -69 -53 -82 -45 -7 5
-9 2 -6 -7 3 -8 -10 -30 -28 -49 -25 -25 -34 -30 -34 -18 0 9 9 19 19 23 26 8
34 52 10 58 -10 3 -20 -2 -23 -10 -4 -11 -2 -13 9 -9 8 3 15 1 15 -4 0 -6 -8
-10 -18 -10 -11 0 -24 -10 -30 -22 -6 -14 -11 -17 -11 -8 -1 22 51 109 88 147
30 32 83 63 150 89 45 17 196 13 214 -5z"/>
<path d="M3990 6893 c-14 -3 -57 -20 -96 -39 -122 -57 -211 -166 -260 -314
-22 -68 -25 -215 -5 -285 48 -171 167 -303 321 -355 54 -18 80 -21 149 -17
284 17 497 310 438 602 -57 277 -293 453 -547 408z m265 -303 c36 -22 65 -81
65 -131 0 -125 -170 -183 -246 -84 -36 48 -42 109 -16 162 36 69 130 95 197
53z"/>
<path d="M6026 6880 c-203 -72 -336 -265 -336 -488 0 -209 105 -379 289 -470
72 -36 79 -37 181 -37 100 0 109 2 174 34 89 44 182 136 225 222 132 270 32
588 -226 716 -66 32 -85 37 -161 40 -69 3 -99 -1 -146 -17z m179 -292 c55 -43
71 -136 35 -195 -49 -80 -168 -84 -228 -8 -47 60 -34 161 27 202 46 31 127 32
166 1z"/>
<path d="M4618 5705 c-32 -18 -58 -63 -58 -100 0 -82 131 -233 252 -290 133
-62 313 -81 463 -50 95 20 223 85 283 143 53 52 112 159 112 205 0 44 -57 97
-105 97 -32 0 -45 -9 -104 -67 -128 -129 -271 -175 -441 -143 -96 18 -159 55
-236 136 -78 82 -115 98 -166 69z"/>
<path d="M2684 6663 c3 -4 18 -8 32 -9 14 -2 24 0 20 3 -3 3 -17 7 -32 9 -14
1 -23 0 -20 -3z"/>
<path d="M2661 6647 c9 -7 18 -19 22 -27 5 -13 6 -13 6 1 1 17 -18 39 -33 39
-6 0 -4 -6 5 -13z"/>
<path d="M2710 6624 c0 -4 8 -13 18 -20 16 -12 16 -14 -3 -29 -20 -16 -20 -16
3 -5 27 13 28 36 2 50 -11 6 -20 8 -20 4z"/>
<path d="M2643 6593 c9 -2 25 -2 35 0 9 3 1 5 -18 5 -19 0 -27 -2 -17 -5z"/>
<path d="M2595 6570 c-3 -5 -1 -10 4 -10 6 0 11 5 11 10 0 6 -2 10 -4 10 -3 0
-8 -4 -11 -10z"/>
<path d="M2497 6463 c-6 -11 -2 -51 6 -59 4 -4 7 9 7 29 0 36 -4 45 -13 30z"/>
<path d="M5000 4268 c-81 -28 -157 -147 -168 -265 l-7 -68 -50 -17 c-70 -23
-327 -83 -470 -110 -97 -18 -158 -22 -317 -22 l-198 -1 -31 -32 c-64 -63 -44
-175 38 -213 18 -8 33 -19 33 -24 0 -5 -63 -156 -139 -335 -77 -179 -155 -364
-174 -410 -32 -80 -36 -84 -68 -88 -90 -9 -154 -82 -145 -163 17 -163 180
-381 347 -465 104 -53 164 -65 319 -65 158 0 230 16 334 74 171 96 326 307
326 444 0 105 -54 172 -138 172 -26 0 -31 6 -47 48 -34 91 -98 238 -182 422
-138 297 -156 342 -135 336 101 -32 368 -77 542 -91 41 -3 95 -11 119 -17 l44
-11 -7 -81 c-3 -45 -6 -372 -6 -727 l0 -646 -65 -6 c-79 -8 -109 -22 -164 -82
-42 -45 -72 -103 -85 -162 -6 -28 -11 -31 -58 -36 -73 -9 -133 -42 -168 -91
-37 -55 -70 -153 -70 -210 0 -73 3 -76 81 -76 66 0 70 1 80 28 27 70 55 116
84 138 l32 24 637 0 c630 0 638 0 667 -21 34 -24 54 -59 64 -114 4 -22 12 -43
18 -47 7 -4 43 -8 81 -8 l69 0 -6 83 c-13 186 -99 297 -229 297 l-46 0 -35 75
c-67 141 -123 191 -225 201 l-62 7 0 733 0 733 43 5 c23 3 85 8 137 11 117 7
259 29 364 56 79 20 166 38 166 34 0 -1 -58 -126 -129 -278 -72 -153 -154
-333 -183 -402 l-53 -125 -43 -6 c-124 -19 -155 -137 -79 -299 92 -194 238
-318 442 -377 62 -17 105 -22 190 -22 97 0 120 4 197 31 263 92 441 289 464
512 11 100 -29 156 -121 169 l-46 7 -150 335 c-238 530 -224 494 -190 505 11
3 34 22 50 41 37 41 40 80 11 138 -32 67 -43 70 -235 71 -165 1 -178 2 -459
58 -158 32 -309 62 -336 68 l-47 10 -7 62 c-7 71 -40 145 -91 204 -59 69 -94
85 -193 89 -49 2 -102 -2 -122 -8z m159 -229 c35 -35 57 -95 47 -133 -6 -25
-8 -26 -90 -26 -64 0 -88 4 -100 16 -33 32 -12 100 44 148 41 34 62 33 99 -5z
m362 -339 c199 -36 317 -66 289 -73 -135 -32 -424 -47 -825 -42 -320 3 -387 8
-545 36 -86 16 -72 20 212 64 128 20 233 37 235 38 1 2 119 2 261 1 213 -2
279 -6 373 -24z m-307 -376 c3 -26 6 -356 6 -734 l0 -687 -105 -2 -105 -2 0
735 0 736 99 0 98 0 7 -46z m1154 -239 c98 -209 172 -379 172 -395 0 -6 -32
-10 -77 -11 -43 0 -164 -2 -270 -5 -118 -3 -193 -1 -197 5 -13 20 260 619 276
603 4 -4 48 -93 96 -197z m-2338 83 c66 -142 212 -480 208 -483 -5 -5 -281
-10 -410 -7 l-127 2 41 98 c145 350 213 502 226 502 5 0 33 -51 62 -112z
m2692 -697 c-40 -111 -168 -217 -314 -262 -160 -50 -366 -3 -493 113 -47 43
-117 148 -98 148 55 0 838 12 840 13 1 1 17 2 36 3 28 0 34 -3 29 -15z m-2490
2 l188 -6 -23 -40 c-53 -95 -125 -155 -242 -202 -59 -24 -84 -29 -165 -29
-141 -1 -258 36 -357 111 -37 29 -113 135 -113 160 0 10 49 13 263 13 144 0
346 -3 449 -7z m1236 -800 l37 -38 -60 -2 c-33 -2 -212 -4 -397 -5 l-337 -3
15 25 c39 62 26 60 381 60 l325 0 36 -37z"/>
<path d="M2040 1930 c0 -5 5 -10 10 -10 6 0 10 5 10 10 0 6 -4 10 -10 10 -5 0
-10 -4 -10 -10z"/>
<path d="M1790 1860 c-16 -14 -20 -24 -13 -31 7 -7 15 -2 27 15 10 16 22 23
31 20 8 -4 15 -1 15 5 0 18 -35 13 -60 -9z"/>
<path d="M1863 1856 c0 -18 3 -24 9 -18 7 7 7 16 0 28 -8 14 -9 13 -9 -10z"/>
<path d="M1754 1804 c7 -39 20 -48 44 -33 23 14 35 46 21 55 -5 3 -9 -1 -9 -8
0 -23 -16 -39 -33 -33 -9 4 -13 13 -11 20 3 7 0 16 -6 20 -7 4 -9 -2 -6 -21z"/>
<path d="M7444 9031 c-221 -35 -412 -209 -469 -427 -19 -75 -19 -213 0 -289
37 -140 104 -242 215 -326 l72 -54 2 -170 c3 -182 11 -226 52 -275 31 -36 75
-40 132 -11 48 25 89 69 149 161 130 202 160 236 250 286 136 77 235 195 285
339 25 72 30 231 9 315 -50 208 -214 385 -402 434 -70 18 -229 27 -295 17z
m272 -241 c34 -15 79 -44 101 -63 77 -70 131 -212 118 -312 -15 -121 -117
-261 -230 -317 -61 -30 -128 -100 -204 -210 -17 -27 -34 -48 -37 -48 -3 0 -4
57 -2 126 l3 126 -52 20 c-71 26 -170 123 -208 203 -24 50 -29 73 -29 140 -1
70 3 88 30 145 50 104 131 174 235 204 111 31 185 27 275 -14z"/>
</g>
</svg>
