<?xml version="1.0" standalone="no"?>
<!DOCTYPE svg PUBLIC "-//W3C//DTD SVG 20010904//EN"
 "http://www.w3.org/TR/2001/REC-SVG-20010904/DTD/svg10.dtd">
<svg version="1.0" xmlns="http://www.w3.org/2000/svg"
 width="1563.000000pt" height="1563.000000pt" viewBox="0 0 1563.000000 1563.000000"
 preserveAspectRatio="xMidYMid meet">
<metadata>
Created by potrace 1.16, written by Peter Selinger 2001-2019
</metadata>
<g transform="translate(0.000000,1563.000000) scale(0.100000,-0.100000)"
fill="#000000" stroke="none">
<path d="M7634 14035 c-82 -79 -198 -192 -259 -250 -131 -126 -196 -189 -211
-207 -6 -7 -80 -80 -165 -162 -85 -82 -226 -219 -314 -305 -229 -223 -487
-474 -825 -801 -162 -156 -349 -337 -415 -402 -108 -106 -136 -126 -283 -212
-90 -53 -166 -96 -168 -96 -2 0 -37 -20 -77 -45 -41 -25 -80 -45 -86 -45 -6 0
-11 -4 -11 -10 0 -5 -11 -12 -25 -16 -14 -3 -25 -9 -25 -13 0 -3 -25 -17 -55
-31 -30 -14 -55 -28 -55 -32 0 -5 -7 -8 -15 -8 -8 0 -15 -4 -15 -9 0 -5 -11
-12 -25 -15 -14 -4 -25 -10 -25 -15 0 -5 -13 -12 -30 -16 -16 -4 -30 -11 -30
-16 0 -5 -6 -9 -14 -9 -8 0 -21 -6 -28 -13 -12 -12 -24 -18 -53 -28 -5 -1 -19
-11 -30 -21 -11 -10 -30 -21 -42 -24 -13 -4 -23 -10 -23 -14 0 -4 -11 -11 -25
-14 -14 -4 -25 -10 -25 -15 0 -5 -13 -12 -30 -16 -16 -4 -30 -11 -30 -16 0 -5
-7 -9 -15 -9 -8 0 -15 -4 -15 -10 0 -5 -11 -12 -25 -16 -14 -3 -25 -10 -25
-14 0 -5 -13 -11 -30 -15 -17 -4 -30 -11 -30 -16 0 -5 -11 -11 -25 -15 -14 -3
-25 -10 -25 -15 0 -5 -7 -9 -15 -9 -8 0 -15 -4 -15 -10 0 -5 -11 -12 -25 -16
-14 -3 -25 -10 -25 -14 0 -5 -14 -11 -30 -15 -17 -4 -30 -11 -30 -16 0 -5 -6
-9 -14 -9 -8 0 -21 -6 -28 -14 -8 -7 -25 -17 -38 -21 -13 -4 -33 -16 -44 -27
-11 -10 -31 -21 -43 -24 -13 -4 -23 -10 -23 -14 0 -5 -14 -11 -30 -15 -17 -4
-30 -10 -30 -14 0 -3 -17 -15 -37 -26 -21 -11 -41 -24 -45 -30 -4 -5 -10 -6
-14 -2 -4 3 -14 -2 -23 -12 -9 -10 -27 -22 -41 -26 -13 -4 -30 -14 -38 -21 -7
-8 -20 -14 -28 -14 -8 0 -14 -4 -14 -9 0 -5 -12 -12 -26 -15 -14 -4 -34 -15
-45 -25 -10 -9 -40 -28 -66 -41 -27 -13 -50 -26 -53 -29 -3 -3 -20 -14 -38
-23 -17 -10 -47 -26 -64 -35 -18 -10 -34 -21 -36 -25 -2 -5 -10 -8 -17 -8 -8
0 -20 -6 -27 -13 -7 -7 -37 -24 -65 -37 -29 -14 -53 -28 -53 -32 0 -5 -7 -8
-15 -8 -8 0 -15 -4 -15 -9 0 -5 -11 -12 -25 -15 -14 -4 -25 -10 -25 -15 0 -5
-14 -12 -30 -16 -17 -4 -30 -11 -30 -16 0 -5 -6 -9 -14 -9 -8 0 -21 -6 -28
-13 -7 -8 -26 -17 -43 -21 -16 -4 -35 -16 -43 -27 -7 -11 -18 -17 -23 -14 -5
4 -9 1 -9 -4 0 -6 -9 -11 -19 -11 -10 0 -21 -7 -25 -15 -3 -8 -12 -15 -21 -15
-8 0 -15 -4 -15 -9 0 -5 -14 -12 -30 -16 -17 -4 -30 -11 -30 -16 0 -5 -7 -9
-15 -9 -8 0 -15 -4 -15 -10 0 -5 -11 -12 -25 -16 -14 -3 -25 -10 -25 -14 0 -4
-11 -11 -25 -14 -14 -4 -25 -11 -25 -16 0 -6 -7 -10 -15 -10 -19 0 -20 -44 -1
-62 7 -8 17 -25 21 -38 4 -13 14 -30 21 -38 8 -7 14 -20 14 -28 0 -8 4 -14 8
-14 5 0 17 -17 28 -37 10 -21 21 -40 24 -43 14 -12 90 -140 84 -140 -4 0 3 -8
14 -19 12 -10 25 -32 28 -49 3 -17 12 -33 20 -36 8 -3 14 -12 14 -21 0 -8 4
-15 9 -15 5 0 12 -11 15 -25 4 -14 11 -25 16 -25 6 0 10 -7 10 -15 0 -8 4 -15
9 -15 5 0 13 -10 17 -22 4 -13 10 -25 13 -28 3 -3 18 -24 33 -47 l28 -42 -23
-26 c-12 -15 -34 -38 -50 -53 -15 -15 -40 -40 -55 -55 -182 -186 -388 -387
-397 -387 -14 0 -105 -100 -105 -116 0 -15 280 -304 295 -304 8 0 100 -88 247
-238 7 -7 28 -27 47 -45 56 -52 313 -299 501 -481 96 -93 231 -224 300 -290
69 -66 202 -195 295 -286 94 -91 298 -289 454 -440 363 -351 337 -325 370
-373 15 -23 77 -123 136 -222 60 -99 111 -182 115 -185 4 -3 10 -15 14 -27 4
-13 11 -23 16 -23 5 0 11 -14 15 -30 4 -17 11 -30 16 -30 5 0 11 -11 15 -25 3
-14 10 -25 15 -25 5 0 9 -6 9 -13 0 -7 11 -24 24 -38 13 -14 27 -35 30 -47 4
-12 11 -22 16 -22 5 0 11 -14 15 -30 4 -17 11 -30 16 -30 5 0 11 -11 15 -25 3
-14 9 -25 14 -25 4 0 15 -17 26 -37 10 -21 25 -44 32 -51 6 -7 12 -20 12 -28
0 -8 5 -14 10 -14 6 0 10 -7 10 -15 0 -9 6 -18 14 -21 8 -3 17 -21 20 -39 4
-21 14 -36 26 -40 12 -4 22 -19 26 -40 3 -18 12 -36 20 -39 8 -3 14 -12 14
-21 0 -8 4 -15 9 -15 5 0 12 -11 15 -25 4 -14 11 -25 16 -25 6 0 10 -7 10 -15
0 -8 4 -15 10 -15 5 0 12 -11 16 -25 3 -14 10 -25 15 -25 5 0 9 -7 9 -15 0 -9
6 -18 14 -21 8 -3 17 -20 20 -39 4 -18 13 -36 21 -39 8 -3 15 -12 15 -21 0 -8
4 -15 9 -15 5 0 11 -8 15 -18 6 -20 25 -50 44 -70 6 -7 12 -20 12 -28 0 -8 4
-14 9 -14 5 0 12 -11 15 -25 4 -14 11 -25 16 -25 6 0 10 -7 10 -15 0 -8 5 -15
11 -15 5 0 8 -4 5 -8 -3 -5 3 -18 14 -30 11 -11 22 -32 25 -45 4 -14 13 -28
21 -31 8 -3 14 -12 14 -21 0 -8 4 -15 9 -15 5 0 12 -11 15 -25 4 -14 11 -25
16 -25 6 0 10 -7 10 -15 0 -8 5 -15 10 -15 6 0 10 -6 10 -14 0 -8 6 -21 14
-28 7 -8 17 -24 20 -36 4 -12 11 -22 16 -22 5 0 11 -13 15 -30 3 -16 15 -32
25 -35 11 -4 17 -12 13 -21 -3 -7 0 -14 6 -14 6 0 11 -9 11 -19 0 -10 7 -21
15 -25 8 -3 15 -12 15 -21 0 -8 5 -15 10 -15 6 0 10 -6 10 -14 0 -8 6 -21 14
-28 7 -8 17 -25 21 -38 4 -14 16 -32 25 -40 9 -8 20 -25 24 -37 4 -13 11 -23
16 -23 5 0 11 -13 15 -29 3 -16 13 -32 21 -35 8 -3 14 -12 14 -21 0 -8 5 -15
10 -15 6 0 10 -9 10 -19 0 -10 7 -21 15 -25 8 -3 15 -12 15 -21 0 -8 5 -15 10
-15 6 0 10 -6 10 -14 0 -8 6 -21 14 -28 7 -8 17 -25 21 -38 4 -14 17 -33 28
-43 11 -9 16 -17 12 -17 -4 0 1 -8 12 -17 11 -10 24 -29 28 -43 4 -13 14 -30
21 -38 8 -7 14 -20 14 -28 0 -8 5 -14 10 -14 6 0 10 -7 10 -15 0 -8 4 -15 9
-15 5 0 13 -10 17 -22 9 -30 34 -54 42 -41 8 11 43 27 55 25 4 -1 7 2 7 6 0 5
18 17 40 28 22 10 40 22 40 25 0 4 11 10 25 13 14 4 25 10 25 15 0 5 14 12 30
16 17 4 30 10 30 15 0 4 11 11 25 14 14 4 25 11 25 16 0 6 7 10 15 10 8 0 15
5 15 11 0 6 7 9 15 5 8 -3 15 -1 15 4 0 6 9 10 19 10 10 0 21 7 25 15 3 8 12
15 21 15 8 0 15 4 15 9 0 5 13 12 29 16 16 3 35 13 42 21 6 8 18 14 25 14 8 0
14 5 14 10 0 6 7 10 15 10 8 0 15 5 15 10 0 6 9 10 20 10 11 0 23 6 26 14 3 8
19 18 35 21 16 4 29 10 29 15 0 4 11 11 25 14 14 4 25 11 25 16 0 28 54 -14
153 -117 22 -24 44 -43 49 -43 4 0 107 -99 228 -220 126 -127 227 -220 237
-220 10 1 29 14 43 30 13 17 30 30 38 30 7 0 30 19 50 42 20 23 50 53 66 67
16 14 41 38 55 54 14 15 39 40 54 55 15 15 40 40 55 56 15 16 46 47 69 70 39
37 75 73 111 108 59 59 80 78 88 79 5 0 25 19 44 42 19 23 98 103 175 177 192
186 742 718 955 925 96 94 238 232 315 307 77 74 187 181 244 237 57 56 117
112 135 126 46 35 436 255 452 255 8 0 17 6 20 14 3 8 17 17 32 21 14 3 34 15
43 26 10 11 19 20 21 20 12 -1 48 13 48 19 0 4 11 11 25 14 14 4 25 10 25 15
0 5 14 12 30 16 17 4 30 10 30 15 0 4 11 11 25 14 14 4 25 11 25 16 0 6 7 10
15 10 8 0 15 4 15 9 0 5 14 12 30 16 17 4 30 11 30 16 0 5 11 11 25 15 14 3
25 10 25 14 0 4 12 11 27 15 15 3 34 15 43 25 9 10 28 22 43 25 15 4 27 11 27
15 0 4 11 11 25 14 14 4 25 10 25 15 0 5 14 12 30 16 17 4 30 10 30 15 0 4 11
11 25 14 14 4 25 11 25 16 0 6 7 10 15 10 8 0 15 4 15 9 0 5 14 12 30 16 17 4
30 11 30 16 0 5 11 11 25 15 14 3 25 10 25 14 0 5 13 11 30 15 16 3 32 15 35
25 4 12 19 22 41 26 19 3 34 10 34 15 0 5 7 9 15 9 9 0 18 6 21 14 3 8 19 18
35 21 16 4 29 11 29 16 0 5 9 9 20 9 11 0 23 7 26 15 4 8 12 15 20 15 8 0 14
4 14 9 0 5 16 12 35 15 19 4 35 11 35 16 0 5 25 21 55 35 31 14 58 32 61 40 4
8 10 15 16 15 18 0 98 41 98 50 0 6 5 10 11 10 19 0 99 40 99 50 0 6 7 10 15
10 8 0 15 4 15 9 0 5 13 12 29 16 16 3 35 13 42 21 6 8 18 14 25 14 8 0 14 4
14 9 0 5 12 12 27 16 15 3 34 14 42 24 9 10 27 22 41 26 13 4 30 14 38 21 7 8
20 14 28 14 8 0 14 4 14 9 0 5 14 12 30 16 17 4 30 10 30 15 0 4 11 11 25 14
14 4 25 11 25 16 0 6 7 10 15 10 8 0 15 4 15 9 0 5 14 12 30 16 17 4 30 11 30
16 0 5 11 11 25 15 14 3 25 10 25 14 0 4 12 11 27 15 15 3 34 15 43 25 9 10
28 22 43 25 15 4 27 11 27 16 0 5 6 9 14 9 8 0 21 6 28 14 8 7 24 17 36 20 12
4 22 12 22 17 0 5 7 9 15 9 8 0 15 4 15 9 0 5 14 12 30 16 17 4 30 11 30 16 0
5 7 9 15 9 15 0 21 36 7 42 -4 2 -30 39 -57 83 -27 44 -52 82 -56 85 -3 3 -10
16 -14 30 -4 13 -14 30 -21 38 -8 7 -14 20 -14 28 0 8 -4 14 -10 14 -5 0 -10
7 -10 15 0 8 -4 15 -9 15 -5 0 -13 10 -17 22 -3 12 -13 28 -20 36 -8 7 -14 20
-14 28 0 8 -4 14 -10 14 -5 0 -10 6 -10 13 0 8 -9 24 -20 37 -11 13 -20 31
-20 40 0 10 -7 20 -15 24 -8 3 -15 12 -15 21 0 8 -4 15 -10 15 -5 0 -10 9 -10
19 0 10 -7 21 -15 25 -8 3 -15 12 -15 21 0 8 -4 15 -10 15 -5 0 -10 6 -10 13
0 8 -11 27 -24 42 l-25 29 37 39 c20 21 43 44 50 51 7 6 32 31 56 55 24 24 49
48 55 55 7 6 20 19 29 28 9 10 20 18 25 18 5 0 92 84 194 186 182 182 185 186
179 220 -4 21 -13 34 -22 34 -9 0 -114 99 -234 220 -121 121 -222 220 -226
220 -4 0 -14 7 -23 15 -242 237 -539 525 -906 880 -159 154 -366 354 -460 446
-93 91 -217 210 -273 265 -264 253 -341 333 -372 384 -18 30 -82 135 -141 233
-60 97 -105 177 -102 177 3 0 -3 8 -14 18 -11 9 -24 28 -28 42 -4 13 -14 30
-21 38 -8 7 -14 20 -14 28 0 8 -3 14 -8 14 -4 0 -16 17 -27 38 -11 20 -26 43
-32 50 -7 7 -13 20 -13 28 0 8 -4 14 -9 14 -5 0 -12 11 -15 25 -4 14 -10 25
-15 25 -5 0 -12 14 -16 30 -4 17 -11 30 -15 30 -5 0 -17 17 -26 38 -10 20 -24
41 -31 45 -7 4 -13 15 -13 22 0 8 -4 15 -10 15 -5 0 -10 6 -10 14 0 8 -6 21
-14 28 -7 8 -17 24 -20 36 -4 12 -12 22 -17 22 -5 0 -9 7 -9 15 0 8 -4 15 -9
15 -5 0 -12 11 -15 25 -4 14 -10 25 -15 25 -5 0 -12 14 -16 30 -4 17 -11 30
-16 30 -4 0 -18 20 -29 45 -11 25 -25 45 -30 45 -6 0 -10 7 -10 15 0 8 -4 15
-10 15 -5 0 -10 6 -10 14 0 8 -6 21 -14 28 -7 8 -17 24 -20 36 -4 12 -11 22
-16 22 -5 0 -11 13 -15 30 -3 16 -15 32 -25 35 -11 3 -20 19 -24 39 -4 19 -13
37 -21 40 -8 3 -15 12 -15 21 0 8 -4 15 -10 15 -5 0 -10 9 -10 20 0 11 -6 23
-14 26 -8 3 -17 16 -20 30 -4 13 -11 24 -16 24 -6 0 -10 7 -10 15 0 8 -4 15
-9 15 -5 0 -12 11 -15 25 -4 14 -10 25 -15 25 -5 0 -12 13 -16 29 -3 16 -13
32 -21 35 -8 3 -14 12 -14 21 0 8 -4 15 -10 15 -5 0 -10 9 -10 19 0 10 -7 21
-15 25 -8 3 -15 12 -15 21 0 8 -4 15 -10 15 -5 0 -10 9 -10 20 0 11 -6 23 -14
26 -8 3 -17 17 -21 32 -3 14 -15 34 -26 43 -11 10 -19 20 -17 23 2 3 -5 15
-14 26 -10 11 -18 24 -18 29 0 4 -9 18 -20 31 -11 13 -20 29 -20 37 0 7 -4 13
-9 13 -5 0 -12 11 -15 25 -4 14 -11 25 -16 25 -6 0 -10 7 -10 15 0 8 -4 15 -9
15 -5 0 -12 11 -15 25 -4 14 -10 25 -15 25 -5 0 -12 14 -16 30 -4 17 -11 30
-16 30 -5 0 -11 11 -15 25 -3 14 -9 25 -13 25 -3 0 -15 17 -26 38 -11 20 -25
41 -32 45 -7 4 -13 15 -13 22 0 8 -4 15 -10 15 -5 0 -10 9 -10 20 0 11 -7 23
-15 26 -8 4 -15 12 -15 20 0 8 -4 14 -10 14 -5 0 -12 11 -16 25 -3 14 -10 25
-15 25 -5 0 -9 6 -9 14 0 8 -6 21 -14 28 -7 8 -17 24 -20 36 -4 12 -12 22 -17
22 -5 0 -9 8 -9 18 0 22 -40 72 -58 72 -7 0 -12 -4 -12 -8 0 -9 -80 -57 -95
-57 -5 0 -17 -8 -26 -17 -8 -9 -27 -20 -42 -23 -15 -4 -27 -11 -27 -15 0 -4
-11 -11 -25 -14 -14 -4 -25 -11 -25 -16 0 -6 -7 -10 -15 -10 -8 0 -15 -4 -15
-10 0 -5 -7 -7 -15 -4 -8 4 -15 1 -15 -5 0 -6 -7 -11 -15 -11 -8 0 -15 -4 -15
-10 0 -5 -11 -12 -25 -16 -14 -3 -25 -10 -25 -14 0 -5 -13 -11 -30 -15 -16 -4
-30 -10 -30 -15 0 -4 -11 -11 -25 -14 -14 -4 -25 -11 -25 -16 0 -6 -7 -10 -15
-10 -8 0 -15 -4 -15 -9 0 -5 -11 -12 -25 -15 -14 -4 -25 -10 -25 -15 0 -5 -13
-12 -30 -16 -16 -4 -30 -10 -30 -15 0 -4 -11 -11 -25 -14 -14 -4 -25 -11 -25
-16 0 -6 -7 -10 -15 -10 -8 0 -15 -4 -15 -10 0 -5 -7 -7 -15 -4 -8 4 -15 1
-15 -5 0 -27 -33 -6 -97 60 -37 39 -81 83 -96 97 -15 15 -47 47 -70 71 -23 24
-55 55 -71 70 -16 14 -41 38 -54 54 -14 15 -29 27 -34 27 -4 0 -54 45 -110
100 -139 136 -125 138 -314 -45z m-2210 -4196 c104 -19 227 -62 338 -117 4 -2
17 15 30 37 l23 41 101 0 101 0 6 -402 c6 -366 6 -403 -10 -420 -13 -15 -31
-18 -104 -18 l-88 0 -12 43 c-26 95 -72 226 -104 292 -99 206 -254 319 -455
332 -307 20 -549 -185 -646 -547 -70 -260 -66 -588 10 -822 98 -298 269 -470
520 -522 96 -20 149 -20 246 -2 129 25 216 64 237 107 9 17 13 87 13 230 0
239 -6 265 -67 292 -41 19 -194 47 -255 47 l-38 0 0 82 c0 129 -50 118 518
118 438 0 487 -2 504 -17 15 -13 18 -31 18 -100 l0 -83 -29 0 c-41 0 -171 -28
-199 -42 -50 -26 -53 -45 -52 -369 1 -166 0 -302 -2 -303 -15 -11 -199 -84
-258 -103 -222 -71 -366 -96 -565 -96 -162 0 -241 12 -380 59 -254 85 -482
283 -598 519 -82 167 -111 269 -128 453 -35 367 63 692 286 952 153 179 388
310 640 358 71 13 328 14 399 1z m4948 -56 c15 -13 18 -31 18 -100 l0 -83 -91
0 c-86 0 -174 -14 -184 -30 -9 -15 407 -790 424 -790 5 0 122 181 157 245 6
11 57 96 112 188 121 201 175 308 167 329 -11 28 -111 57 -195 58 -87 1 -90 3
-90 84 1 54 5 76 19 94 l19 22 390 0 c459 0 425 9 420 -116 l-3 -79 -46 -6
c-62 -9 -133 -41 -186 -85 -63 -51 -215 -271 -343 -494 -20 -36 -88 -155 -152
-265 -63 -110 -123 -220 -133 -245 -17 -40 -20 -77 -23 -340 -3 -352 -3 -354
88 -381 94 -28 148 -39 200 -39 l50 0 0 -82 c0 -130 54 -118 -550 -118 -605 0
-553 -11 -548 116 l3 79 35 2 c19 2 80 8 134 15 85 10 104 16 130 39 l31 27 3
305 3 304 -90 179 c-49 98 -109 215 -133 259 -25 44 -64 116 -87 160 -273 510
-306 546 -511 567 -24 3 -25 6 -28 82 -5 127 -51 116 501 116 424 0 472 -2
489 -17z m-2468 -806 c59 -27 116 -81 140 -131 78 -165 11 -345 -174 -461 -22
-14 -40 -28 -40 -31 0 -13 259 -326 280 -339 21 -13 110 202 110 266 0 29 -13
37 -100 60 -61 17 -70 26 -70 67 0 72 1 72 296 72 255 0 264 -1 274 -20 6 -12
10 -40 8 -63 -3 -38 -5 -42 -33 -45 -53 -6 -133 -32 -159 -53 -14 -11 -40 -52
-60 -92 -19 -40 -51 -108 -73 -152 -21 -44 -49 -97 -62 -118 -21 -34 -22 -41
-10 -64 16 -30 112 -114 156 -137 39 -20 146 -46 191 -46 l32 0 0 -53 c0 -29
-5 -58 -12 -65 -9 -9 -71 -12 -216 -12 l-204 0 -35 38 c-19 20 -46 52 -60 70
-14 17 -30 32 -36 32 -5 0 -29 -17 -52 -38 -181 -168 -457 -178 -627 -24 -168
152 -158 436 22 600 14 13 51 44 82 68 l58 45 -39 52 c-21 29 -54 81 -72 117
-30 59 -33 73 -33 155 0 71 5 100 22 137 41 92 144 169 252 189 73 13 187 2
244 -24z"/>
<path d="M7688 8840 c-56 -43 -73 -132 -41 -212 27 -69 92 -160 110 -154 28
11 71 51 97 90 62 94 39 256 -41 287 -41 15 -98 11 -125 -11z"/>
<path d="M7578 8203 c-61 -63 -85 -201 -54 -307 30 -102 123 -176 221 -176 67
0 191 53 202 86 4 11 -319 416 -335 422 -5 1 -20 -10 -34 -25z"/>
<path d="M6320 3001 c0 -5 -13 -11 -30 -14 -16 -4 -48 -25 -70 -47 -22 -22
-45 -40 -50 -40 -6 0 -33 -23 -61 -51 -42 -42 -50 -55 -47 -82 3 -30 5 -32 43
-31 21 1 41 7 43 13 2 6 12 11 23 11 10 0 19 5 19 11 0 6 9 8 20 4 11 -4 20
-2 20 4 0 6 7 11 15 11 8 0 15 4 15 9 0 5 18 12 40 16 22 4 40 10 40 15 0 4
12 11 26 14 35 9 50 26 59 64 8 39 -19 81 -52 82 -13 0 -23 5 -23 10 0 6 -7
10 -15 10 -8 0 -15 -4 -15 -9z"/>
<path d="M1573 2733 c-18 -2 -33 -8 -33 -14 0 -5 -7 -9 -15 -9 -15 0 -86 -30
-95 -41 -3 -3 -12 -9 -20 -13 -51 -24 -100 -65 -100 -83 0 -7 -10 -23 -22 -37
-40 -42 -46 -52 -53 -87 -4 -19 -12 -37 -19 -41 -15 -10 -15 -276 0 -286 6 -4
14 -24 18 -44 4 -21 11 -38 16 -38 6 0 10 -7 10 -15 0 -8 4 -15 9 -15 5 0 13
-9 16 -20 9 -28 85 -106 113 -114 12 -4 22 -11 22 -16 0 -5 14 -11 30 -15 17
-4 30 -11 30 -15 0 -5 27 -12 60 -16 33 -4 60 -11 60 -15 0 -5 52 -9 115 -9
63 0 115 4 115 9 0 4 32 12 70 15 39 4 70 11 70 16 0 4 23 11 50 15 28 4 50
11 50 16 0 5 6 9 13 9 9 0 12 33 12 130 0 146 2 150 68 150 21 0 45 6 53 14
21 22 18 63 -6 71 -11 3 -20 11 -20 16 0 5 -87 9 -211 9 -237 0 -239 -1 -239
-69 l0 -41 60 0 c39 0 60 -4 60 -12 0 -6 3 -8 7 -5 3 4 12 2 20 -4 19 -17 19
-199 -1 -199 -8 0 -16 -6 -19 -12 -3 -10 -38 -13 -129 -13 -105 0 -127 3 -142
18 -10 9 -22 17 -27 17 -13 0 -78 70 -85 93 -3 9 -10 17 -15 17 -5 0 -9 9 -9
20 0 11 -5 20 -11 20 -6 0 -8 9 -4 20 4 11 2 20 -4 20 -6 0 -11 18 -11 40 0
22 -4 40 -10 40 -6 0 -10 27 -10 60 0 33 4 60 10 60 6 0 10 20 10 45 0 25 5
45 11 45 5 0 8 4 5 9 -6 10 16 61 27 61 4 0 7 7 7 15 0 18 70 95 87 95 6 0 13
5 15 11 2 6 25 13 51 16 26 3 47 10 47 14 0 5 16 9 35 9 19 0 35 -4 35 -9 0
-4 19 -11 42 -14 24 -3 44 -11 46 -16 2 -6 9 -11 16 -11 15 0 67 -46 65 -57
-3 -14 14 -48 28 -56 7 -4 13 -19 13 -32 0 -14 5 -25 10 -25 6 0 10 -8 10 -18
0 -10 5 -23 12 -30 16 -16 75 -15 85 1 4 6 8 87 8 178 l0 166 -52 2 c-42 1
-53 -2 -53 -15 0 -12 -7 -14 -37 -8 -21 4 -41 12 -45 18 -7 11 -261 18 -325 9z"/>
<path d="M3790 2714 c-6 -14 -10 -30 -10 -35 0 -5 -4 -9 -10 -9 -5 0 -10 -9
-10 -20 0 -11 -5 -20 -11 -20 -6 0 -9 -7 -5 -15 3 -8 1 -15 -4 -15 -6 0 -10
-9 -10 -20 0 -11 -4 -20 -9 -20 -5 0 -12 -16 -15 -35 -4 -19 -11 -35 -16 -35
-5 0 -12 -16 -16 -35 -3 -19 -10 -35 -14 -35 -4 0 -11 -16 -14 -35 -4 -19 -11
-35 -16 -35 -6 0 -10 -9 -10 -20 0 -11 -4 -20 -9 -20 -5 0 -12 -16 -15 -35 -4
-19 -11 -35 -16 -35 -5 0 -12 -16 -16 -35 -3 -19 -10 -35 -15 -35 -5 0 -9 -7
-9 -15 0 -8 -4 -15 -9 -15 -5 0 -7 -9 -4 -20 3 -11 0 -20 -6 -20 -6 0 -11 -7
-11 -15 0 -8 -4 -15 -10 -15 -5 0 -12 -16 -16 -35 -3 -19 -10 -35 -14 -35 -4
0 -10 -10 -14 -23 -3 -13 -17 -29 -31 -37 -14 -7 -25 -17 -25 -22 0 -4 -10 -8
-22 -8 -58 0 -69 -10 -66 -54 l3 -41 185 -3 c102 -1 195 0 208 3 17 4 22 12
22 40 0 41 -5 44 -72 52 -69 8 -77 16 -64 70 5 24 13 43 17 43 4 0 10 15 13
34 4 19 14 37 22 40 9 3 81 6 161 6 160 0 167 -2 178 -63 4 -19 14 -44 23 -54
10 -10 18 -30 18 -45 2 -23 -2 -28 -21 -28 -12 0 -37 -3 -54 -6 -30 -6 -32 -9
-29 -48 l3 -41 420 -3 c231 -1 430 0 443 3 17 4 22 12 22 40 0 39 -20 55 -69
55 -17 0 -31 4 -31 9 0 5 -11 12 -24 15 -13 3 -26 13 -30 21 -10 26 -8 499 2
503 5 1 13 -13 16 -33 4 -19 11 -35 16 -35 4 0 11 -18 15 -40 4 -22 11 -40 15
-40 5 0 12 -16 16 -35 3 -19 10 -35 15 -35 5 0 9 -9 9 -20 0 -11 4 -20 10 -20
5 0 12 -16 16 -35 3 -19 10 -35 14 -35 4 0 11 -16 14 -35 4 -19 11 -35 16 -35
4 0 11 -18 15 -40 4 -22 10 -40 15 -40 4 0 11 -16 14 -35 4 -19 11 -35 16 -35
6 0 10 -9 10 -20 0 -11 5 -20 10 -20 6 0 10 -11 10 -25 0 -23 4 -25 44 -25 42
0 44 1 50 35 4 19 11 35 16 35 6 0 10 9 10 20 0 11 4 20 10 20 5 0 12 16 16
35 3 19 10 35 15 35 4 0 11 16 15 35 3 19 10 35 15 35 4 0 11 16 15 35 3 19
10 35 15 35 5 0 9 7 9 15 0 8 4 15 10 15 5 0 7 7 4 15 -4 8 -1 15 5 15 6 0 11
9 11 20 0 11 4 20 9 20 5 0 12 16 15 35 4 19 11 35 16 35 4 0 11 14 15 30 4
17 10 30 15 30 4 0 11 18 15 40 4 22 10 40 14 40 4 0 12 12 18 28 8 20 11 -39
12 -248 0 -255 -1 -277 -18 -297 -11 -13 -30 -23 -43 -23 -12 0 -40 -3 -60 -6
-36 -6 -38 -9 -38 -44 0 -25 5 -40 16 -44 20 -8 428 -8 448 0 11 4 16 19 16
44 0 41 -13 50 -77 50 -26 0 -34 5 -39 25 -3 14 -10 25 -15 25 -5 0 -9 133 -9
305 0 298 0 305 22 330 24 28 77 49 101 39 15 -5 17 2 17 45 l0 51 -185 0
-185 0 0 -30 c0 -16 -5 -30 -11 -30 -5 0 -10 -8 -9 -17 3 -24 -10 -63 -20 -63
-4 0 -11 -16 -14 -35 -4 -19 -11 -35 -16 -35 -4 0 -11 -18 -15 -40 -4 -22 -11
-40 -16 -40 -5 0 -9 -7 -9 -15 0 -8 -5 -15 -11 -15 -5 0 -8 -4 -4 -10 5 -8
-12 -49 -26 -60 -4 -3 -10 -20 -14 -37 -3 -18 -10 -33 -15 -33 -4 0 -11 -16
-14 -35 -4 -19 -11 -35 -15 -35 -5 0 -12 -16 -15 -35 -4 -19 -9 -35 -12 -35
-13 0 -35 32 -40 59 -4 17 -10 31 -14 31 -4 0 -11 16 -14 35 -4 19 -11 35 -16
35 -6 0 -10 9 -10 20 0 11 -5 20 -11 20 -6 0 -9 7 -5 15 3 8 1 15 -4 15 -6 0
-10 9 -10 20 0 11 -4 20 -10 20 -5 0 -12 16 -16 35 -3 19 -10 35 -14 35 -4 0
-11 16 -14 35 -4 19 -11 35 -16 35 -6 0 -10 9 -10 20 0 11 -5 20 -11 20 -6 0
-9 7 -5 15 3 8 1 15 -4 15 -6 0 -10 9 -10 20 0 11 -4 20 -9 20 -5 0 -12 18
-16 40 l-7 40 -194 0 -194 0 0 -49 0 -48 49 -6 c48 -6 91 -33 91 -57 0 -5 5
-10 10 -10 6 0 10 -103 10 -290 0 -187 -4 -290 -10 -290 -5 0 -10 -8 -10 -18
0 -10 -10 -26 -22 -36 -30 -26 -187 -29 -212 -3 -10 9 -21 17 -26 17 -4 0 -11
11 -14 25 -4 14 -11 25 -16 25 -6 0 -10 9 -10 19 0 11 -4 22 -10 26 -5 3 -7
12 -3 20 3 8 0 15 -6 15 -6 0 -11 7 -11 15 0 8 -4 15 -10 15 -5 0 -12 16 -16
35 -3 19 -10 35 -14 35 -4 0 -11 16 -14 35 -4 19 -11 35 -16 35 -4 0 -11 18
-15 40 -4 22 -10 40 -13 40 -11 0 -32 52 -26 61 3 5 0 9 -5 9 -6 0 -11 7 -11
15 0 8 -4 15 -9 15 -5 0 -12 16 -15 35 -4 19 -11 35 -16 35 -5 0 -12 16 -16
35 -3 19 -10 35 -15 35 -5 0 -9 9 -9 20 0 11 -4 20 -10 20 -5 0 -10 6 -10 13
0 6 -6 24 -14 39 -8 15 -17 40 -21 57 -6 30 -9 31 -56 31 -44 0 -51 -3 -59
-26z m41 -324 c5 0 11 -16 15 -35 3 -19 10 -35 14 -35 5 0 11 -13 15 -30 4
-16 11 -30 16 -30 5 0 9 -11 9 -25 0 -25 0 -25 -99 -25 -55 0 -102 4 -105 8
-3 5 3 18 13 28 10 11 21 37 25 57 4 20 11 37 16 37 4 0 11 18 15 40 4 22 10
40 15 40 4 0 11 10 15 23 7 20 8 18 18 -15 6 -21 14 -38 18 -38z"/>
<path d="M6150 2725 c0 -8 -5 -15 -11 -15 -6 0 -9 -7 -5 -15 3 -8 1 -15 -4
-15 -6 0 -10 -9 -10 -20 0 -11 -4 -20 -10 -20 -5 0 -9 -3 -8 -7 3 -15 -14 -63
-23 -63 -4 0 -11 -16 -15 -35 -3 -19 -10 -35 -14 -35 -4 0 -11 -16 -14 -35 -4
-19 -11 -35 -16 -35 -6 0 -10 -7 -10 -15 0 -8 -5 -15 -11 -15 -6 0 -8 -9 -4
-20 4 -11 2 -20 -4 -20 -6 0 -11 -9 -11 -20 0 -11 -4 -20 -9 -20 -5 0 -12 -13
-16 -30 -4 -16 -10 -30 -15 -30 -4 0 -11 -18 -15 -40 -4 -22 -11 -40 -15 -40
-5 0 -12 -16 -16 -35 -3 -19 -10 -35 -15 -35 -5 0 -9 -7 -9 -15 0 -8 -4 -15
-10 -15 -5 0 -7 -7 -4 -15 4 -8 1 -15 -5 -15 -6 0 -11 -9 -11 -20 0 -11 -4
-20 -10 -20 -5 0 -10 -6 -10 -14 0 -20 -66 -86 -87 -86 -10 0 -28 -3 -41 -6
-20 -6 -23 -12 -20 -48 l3 -41 185 -3 c102 -1 195 0 208 3 17 4 22 12 22 39 0
29 -5 36 -31 45 -18 6 -47 11 -65 11 -24 0 -34 5 -39 20 -8 25 3 100 15 100 4
0 11 16 14 35 l7 35 164 0 c140 0 165 -2 165 -15 0 -8 4 -15 9 -15 5 0 12 -18
16 -40 4 -22 11 -40 16 -40 5 0 9 -7 9 -15 0 -8 5 -15 10 -15 6 0 10 -11 10
-25 0 -22 -4 -25 -34 -25 -18 0 -47 -5 -65 -11 -26 -9 -31 -16 -31 -44 0 -20
6 -35 15 -39 20 -7 860 -7 880 0 10 4 15 20 15 44 0 42 -11 50 -66 50 -19 0
-34 5 -34 10 0 6 -4 10 -10 10 -17 0 -50 39 -50 60 0 11 -4 20 -10 20 -6 0
-10 82 -10 225 0 143 4 225 10 225 6 0 10 -4 10 -10 0 -5 14 -23 30 -40 17
-17 30 -37 30 -45 0 -8 4 -15 9 -15 12 0 71 -59 71 -71 0 -6 22 -33 49 -59 27
-27 47 -50 45 -53 -3 -2 13 -22 36 -43 22 -21 40 -42 40 -48 0 -5 23 -31 50
-58 28 -27 50 -53 50 -58 0 -5 17 -25 38 -45 20 -20 37 -40 37 -44 0 -5 11
-20 25 -34 21 -22 34 -27 78 -27 l52 0 0 355 c0 230 4 355 10 355 6 0 10 15
10 33 0 17 6 39 13 48 12 16 61 30 104 29 28 0 41 41 24 73 -11 21 -17 22
-226 24 l-215 2 0 -48 c0 -44 2 -49 23 -49 38 -1 87 -14 87 -23 0 -5 5 -9 11
-9 6 0 18 -8 27 -17 15 -14 17 -47 20 -240 3 -161 1 -223 -7 -223 -7 0 -15 8
-18 18 -4 9 -18 29 -32 44 -40 43 -51 56 -51 66 0 5 -13 19 -30 32 -16 13 -30
31 -30 41 0 11 -4 19 -9 19 -12 0 -81 69 -81 81 0 5 -18 27 -40 49 -22 22 -40
45 -40 51 0 13 -47 59 -60 59 -5 0 -12 10 -16 23 -4 12 -24 38 -45 58 -22 20
-39 43 -39 52 0 15 -18 17 -156 17 -174 0 -184 -3 -184 -64 0 -33 2 -36 24
-30 13 3 27 1 30 -5 4 -6 18 -11 32 -11 13 0 24 -4 24 -9 0 -5 12 -12 26 -15
17 -5 24 -12 20 -21 -3 -8 -1 -15 4 -15 6 0 10 -9 10 -20 0 -11 5 -20 10 -20
6 0 10 -87 10 -240 0 -153 -4 -240 -10 -240 -5 0 -10 -18 -10 -41 0 -38 -17
-69 -38 -69 -6 0 -12 -5 -14 -11 -6 -18 -180 -17 -186 0 -2 7 -13 21 -23 29
-11 9 -19 22 -19 29 0 7 -4 13 -9 13 -5 0 -12 14 -16 30 -4 17 -11 30 -16 30
-5 0 -9 9 -9 20 0 11 -5 20 -11 20 -6 0 -9 9 -6 20 3 11 1 20 -4 20 -5 0 -9 7
-9 15 0 8 -4 15 -9 15 -5 0 -12 16 -15 35 -4 19 -11 35 -15 35 -5 0 -12 16
-15 35 -4 19 -11 35 -16 35 -6 0 -10 11 -10 24 0 14 -7 31 -15 40 -8 8 -15 22
-15 30 0 9 -4 16 -10 16 -5 0 -12 16 -16 35 -3 19 -10 35 -14 35 -4 0 -11 16
-14 35 -4 19 -11 35 -16 35 -6 0 -10 8 -10 18 0 9 -7 26 -15 36 -8 11 -15 28
-15 38 0 10 -5 18 -11 18 -6 0 -9 7 -5 15 3 8 1 15 -4 15 -6 0 -10 11 -10 25
0 24 -3 25 -55 25 -42 0 -55 -3 -55 -15z m25 -305 c4 -17 10 -30 15 -30 4 0
11 -18 15 -40 4 -22 11 -40 16 -40 5 0 9 -7 9 -15 0 -8 4 -15 9 -15 5 0 7 -9
4 -20 -3 -11 0 -20 6 -20 6 0 11 -7 11 -15 0 -12 -18 -15 -104 -15 l-104 0 11
35 c6 19 14 35 18 35 4 0 10 18 14 40 4 22 11 40 15 40 5 0 12 16 16 35 3 19
10 35 15 35 5 0 9 7 9 16 0 25 18 6 25 -26z"/>
<path d="M8498 2733 c-16 -2 -28 -9 -28 -14 0 -5 -7 -9 -16 -9 -17 0 -69 -51
-92 -89 -14 -23 -13 -171 0 -171 5 0 8 -7 8 -15 0 -8 5 -15 10 -15 6 0 10 -8
10 -18 0 -10 9 -25 20 -35 19 -16 30 -74 12 -63 -5 3 -15 -4 -22 -15 -8 -10
-21 -19 -29 -19 -20 0 -79 -64 -87 -94 -3 -14 -10 -26 -14 -26 -4 0 -11 -16
-14 -35 -3 -19 -9 -50 -12 -69 -3 -20 -1 -36 5 -40 6 -4 11 -18 11 -32 0 -13
4 -24 9 -24 5 0 12 -12 16 -27 8 -33 42 -73 62 -73 8 0 16 -6 19 -14 3 -8 27
-17 55 -21 27 -4 49 -11 49 -16 0 -5 41 -9 90 -9 50 0 90 4 90 9 0 5 20 12 45
15 25 4 45 11 45 16 0 5 10 12 23 16 12 4 33 18 46 32 l23 25 41 -44 41 -44
160 0 161 0 3 41 c3 46 -8 54 -80 54 -21 0 -38 5 -38 10 0 6 -9 10 -20 10 -11
0 -20 5 -20 11 0 5 -4 7 -10 4 -5 -3 -15 3 -22 15 -7 11 -18 20 -24 20 -6 0
-23 11 -38 25 -25 23 -26 27 -12 41 9 8 16 22 16 29 0 8 9 16 19 20 12 3 21
19 25 40 4 19 11 35 16 35 4 0 11 14 15 30 4 17 10 30 15 30 4 0 11 11 14 25
4 15 16 27 31 31 14 3 25 10 25 15 0 5 11 9 24 9 13 0 38 3 55 6 28 6 31 10
31 44 0 25 -5 40 -16 44 -20 8 -368 8 -388 0 -11 -4 -16 -19 -16 -44 0 -39 14
-49 62 -50 33 0 54 -28 50 -65 -2 -19 -8 -35 -12 -35 -5 0 -11 -13 -15 -30 -4
-16 -11 -30 -16 -30 -5 0 -11 -11 -15 -24 -5 -22 -10 -19 -79 50 -40 40 -76
82 -80 93 -3 10 -12 22 -20 25 -20 7 -19 46 0 46 9 0 18 7 21 15 4 8 13 15 22
15 18 0 62 46 62 66 0 7 6 14 13 17 16 5 17 184 1 195 -6 4 -14 17 -18 29 -4
12 -17 25 -29 29 -12 4 -25 11 -29 17 -7 11 -211 19 -260 10z m142 -92 c0 -5
13 -11 29 -14 25 -5 31 -12 36 -44 3 -21 8 -50 10 -65 3 -16 0 -28 -5 -28 -6
0 -10 -5 -10 -11 0 -16 -56 -69 -74 -69 -20 0 -56 35 -56 55 0 7 -7 18 -16 23
-23 13 -23 96 1 122 10 11 26 20 37 20 10 0 18 5 18 10 0 6 7 10 15 10 8 0 15
-4 15 -9z m70 -614 c0 -5 12 -20 27 -33 l27 -23 -28 -11 c-15 -5 -32 -10 -37
-10 -5 0 -9 -4 -9 -10 0 -6 -30 -10 -70 -10 -40 0 -70 4 -70 10 0 6 -6 10 -13
10 -7 0 -20 9 -29 19 -9 10 -24 24 -34 29 -16 9 -19 23 -19 99 0 85 1 91 28
115 l28 26 100 -100 c54 -55 99 -105 99 -111z"/>
<path d="M12068 2733 c-16 -2 -28 -8 -28 -13 0 -4 -16 -11 -35 -14 -19 -4 -35
-11 -35 -16 0 -6 -7 -10 -15 -10 -8 0 -15 -4 -15 -10 0 -5 -7 -10 -15 -10 -19
0 -120 -103 -137 -140 -7 -17 -16 -30 -20 -30 -4 0 -11 -18 -14 -40 -4 -22
-10 -40 -15 -40 -5 0 -9 -16 -9 -35 0 -19 -4 -35 -10 -35 -6 0 -10 -28 -10
-64 0 -36 5 -68 10 -71 6 -3 10 -24 10 -46 0 -21 4 -39 9 -39 5 0 12 -18 16
-40 4 -22 10 -40 15 -40 4 0 11 -11 14 -25 4 -14 11 -25 16 -25 6 0 10 -5 10
-11 0 -14 79 -93 103 -102 9 -3 17 -11 17 -16 0 -5 18 -12 40 -16 22 -4 40
-11 40 -15 0 -5 25 -12 55 -15 30 -4 55 -11 55 -16 0 -5 15 -9 34 -9 29 0 33
-3 29 -20 -3 -11 0 -20 6 -20 6 0 11 -9 11 -20 0 -11 5 -20 11 -20 5 0 8 -4 5
-8 -3 -5 6 -19 19 -30 14 -12 25 -26 25 -31 0 -5 10 -13 23 -17 12 -4 25 -11
28 -16 4 -6 27 -13 53 -15 25 -3 46 -10 46 -14 0 -5 36 -9 80 -9 47 0 80 4 80
10 0 6 15 10 34 10 18 0 48 3 65 6 27 6 31 11 31 39 0 55 -25 68 -124 64 -48
-2 -86 -1 -86 4 0 4 -5 7 -10 7 -10 0 -30 20 -70 67 -23 28 -2 56 48 68 18 3
32 10 32 15 0 5 9 12 21 15 26 9 125 108 134 134 3 12 10 21 15 21 5 0 12 15
15 33 4 17 13 35 19 39 7 5 11 60 11 168 0 108 -4 163 -11 168 -6 4 -15 22
-19 40 -3 17 -11 32 -16 32 -5 0 -9 6 -9 14 0 8 -7 16 -15 20 -8 3 -15 13 -15
22 0 19 -61 80 -90 89 -11 3 -20 11 -20 16 0 5 -7 9 -15 9 -8 0 -15 5 -15 11
0 6 -7 9 -15 6 -8 -4 -17 -2 -20 3 -4 6 -15 10 -25 10 -10 0 -20 6 -22 12 -3
9 -45 13 -154 14 -82 1 -161 0 -176 -3z m172 -92 c0 -4 22 -11 50 -14 51 -6
60 -11 108 -59 40 -40 52 -56 52 -68 0 -5 4 -10 10 -10 5 0 12 -22 16 -50 4
-27 10 -50 15 -50 5 0 9 -54 9 -120 0 -66 -4 -120 -9 -120 -5 0 -11 -22 -15
-50 -4 -27 -11 -50 -16 -50 -6 0 -10 -5 -10 -11 0 -16 -66 -99 -74 -92 -3 3
-15 -5 -27 -18 -20 -23 -27 -24 -132 -24 -79 0 -112 4 -114 13 -3 6 -10 12
-17 12 -16 0 -86 80 -86 97 0 7 -4 13 -10 13 -5 0 -10 6 -10 14 0 8 -5 16 -10
18 -6 2 -13 33 -17 71 -3 37 -10 67 -14 67 -5 0 -9 25 -9 55 0 30 4 55 9 55 4
0 11 30 14 67 3 37 10 69 16 71 6 2 11 12 11 23 0 10 4 19 10 19 5 0 7 7 4 15
-4 8 -2 15 4 15 6 0 31 21 57 46 37 38 54 47 90 52 25 2 45 9 45 13 0 5 11 9
25 9 14 0 25 -4 25 -9z"/>
<path d="M2280 2688 c0 -21 0 -41 0 -45 0 -5 6 -9 13 -9 34 -4 77 -18 77 -25
0 -5 7 -9 15 -9 13 0 15 -40 15 -300 0 -206 3 -300 11 -300 6 0 8 -8 5 -18 -4
-10 2 -26 12 -38 10 -10 21 -27 25 -37 3 -9 18 -22 32 -29 14 -6 25 -15 25
-19 0 -4 14 -10 30 -14 17 -4 30 -10 30 -15 0 -5 25 -12 55 -15 30 -4 55 -11
55 -16 0 -5 47 -9 105 -9 58 0 105 4 105 9 0 5 23 11 50 15 28 4 50 11 50 15
0 5 12 12 26 15 15 4 32 12 40 19 31 28 44 37 51 37 11 0 53 95 53 119 0 11 5
23 10 26 6 4 10 104 10 268 0 215 3 266 15 284 15 22 57 35 113 35 32 -1 32 0
32 48 l0 48 -227 1 -228 1 0 -49 c0 -46 2 -50 25 -50 72 0 130 -28 130 -63 0
-10 5 -18 10 -18 6 0 10 -90 10 -250 0 -140 -4 -250 -9 -250 -5 0 -12 -12 -15
-26 -9 -34 -56 -81 -90 -90 -14 -3 -26 -10 -26 -15 0 -5 -45 -9 -100 -9 -55 0
-100 4 -100 9 0 5 -12 12 -26 15 -32 8 -74 52 -74 77 0 11 -5 19 -10 19 -7 0
-9 99 -8 291 l3 291 40 14 c22 7 50 11 63 7 22 -5 23 -3 20 43 l-3 49 -222 0
-223 0 0 -37z"/>
<path d="M9607 2723 c-9 -9 -9 -65 1 -79 4 -6 23 -13 43 -17 38 -6 118 -73
132 -110 7 -18 57 -99 98 -159 11 -15 19 -32 19 -38 0 -5 5 -10 10 -10 6 0 10
-9 10 -20 0 -11 7 -23 15 -26 8 -4 15 -12 15 -20 0 -8 5 -14 11 -14 6 0 9 -7
5 -15 -3 -8 -1 -15 4 -15 6 0 10 -7 10 -15 0 -8 5 -15 10 -15 6 0 10 -43 10
-110 0 -61 -4 -110 -9 -110 -5 0 -13 -9 -16 -20 -5 -15 -15 -20 -39 -20 -19 0
-48 -3 -65 -6 -28 -6 -31 -10 -31 -45 0 -32 4 -40 23 -44 12 -3 126 -4 252 -3
l230 3 3 42 3 42 -60 7 c-34 4 -61 11 -61 15 0 5 -7 9 -15 9 -13 0 -15 22 -15
139 0 105 3 143 14 153 7 8 17 24 20 36 4 12 12 22 17 22 5 0 9 6 9 14 0 8 7
16 15 20 8 3 15 12 15 21 0 8 4 15 9 15 5 0 13 10 17 22 3 12 13 28 20 36 8 7
14 20 14 27 0 8 9 17 20 20 11 3 20 13 20 20 0 8 13 28 29 44 16 17 32 39 36
50 3 12 17 24 31 27 13 3 24 10 24 14 0 4 20 14 45 21 38 11 45 17 45 39 0 52
-6 53 -194 58 -197 5 -206 2 -206 -63 0 -35 2 -37 25 -31 13 3 42 1 64 -6 37
-12 38 -13 28 -43 -6 -16 -16 -34 -24 -38 -7 -4 -13 -15 -13 -22 0 -8 -4 -15
-9 -15 -5 0 -13 -10 -17 -22 -4 -13 -17 -32 -29 -43 -13 -11 -26 -30 -30 -42
-3 -13 -11 -23 -16 -23 -5 0 -9 -5 -9 -11 0 -14 -25 -39 -39 -39 -6 0 -11 9
-11 19 0 10 -7 21 -15 25 -8 3 -15 12 -15 21 0 8 -4 15 -10 15 -5 0 -12 11
-16 25 -3 14 -10 25 -14 25 -5 0 -12 10 -16 23 -4 12 -15 29 -24 37 -9 8 -20
25 -24 38 -4 12 -11 22 -16 22 -12 0 -19 39 -8 47 6 3 33 5 60 4 l48 -1 0 50
0 50 -228 0 c-126 0 -232 -3 -235 -7z"/>
<path d="M10768 2722 l-158 -3 0 -39 c0 -33 3 -40 19 -40 11 0 23 -4 26 -10 3
-5 17 -10 31 -10 15 0 24 -6 24 -15 0 -8 5 -15 10 -15 6 0 10 -107 10 -300 0
-193 4 -300 10 -300 6 0 10 -9 10 -20 0 -10 14 -33 30 -50 17 -17 30 -35 30
-40 0 -6 7 -10 15 -10 8 0 15 -4 15 -9 0 -5 12 -12 27 -16 15 -3 30 -11 34
-16 3 -5 29 -12 57 -16 29 -3 52 -10 52 -14 0 -5 47 -9 105 -9 58 0 105 4 105
9 0 5 23 11 50 15 28 4 50 11 50 16 0 5 15 12 34 16 19 3 37 12 40 20 3 8 12
14 21 14 8 0 15 7 15 15 0 9 11 26 25 39 14 13 25 31 25 40 0 9 4 16 10 16 12
0 11 -16 16 318 3 163 9 272 14 272 6 0 9 5 8 11 -5 20 90 54 122 44 17 -6 20
-2 20 30 0 67 -5 68 -243 61 -117 -3 -212 -6 -212 -6 0 -76 3 -85 26 -87 86
-8 129 -31 129 -70 0 -13 5 -23 10 -23 6 0 10 -87 10 -240 0 -132 -4 -240 -9
-240 -5 0 -11 -14 -15 -31 -6 -34 -48 -79 -72 -79 -7 0 -14 -4 -14 -10 0 -5
-9 -10 -20 -10 -11 0 -20 -4 -20 -10 0 -6 -38 -10 -95 -10 -57 0 -95 4 -95 10
0 6 -7 10 -15 10 -8 0 -15 5 -15 11 0 5 -4 7 -10 4 -13 -8 -60 43 -60 66 0 11
-4 19 -10 19 -6 0 -10 103 -10 289 l0 288 43 16 c23 9 52 14 65 11 20 -6 22
-3 22 34 0 62 15 60 -292 54z"/>
<path d="M12822 2713 c-7 -7 -12 -28 -12 -48 0 -32 2 -36 21 -30 19 6 41 0 89
-25 8 -5 14 -13 13 -19 -2 -6 2 -11 7 -11 6 0 10 -107 10 -300 0 -176 4 -300
9 -300 5 0 12 -13 16 -28 7 -33 49 -82 70 -82 8 0 15 -4 15 -9 0 -5 14 -12 30
-16 17 -4 30 -11 30 -15 0 -5 23 -12 50 -16 28 -4 50 -10 50 -15 0 -5 47 -9
105 -9 58 0 105 4 105 9 0 4 23 11 52 14 28 4 54 11 57 16 4 5 18 12 32 16 27
7 64 38 89 75 8 12 21 28 28 36 6 7 12 20 12 28 0 9 3 16 8 16 4 0 6 113 4
252 -2 163 1 255 8 262 5 5 10 23 10 38 0 15 8 36 18 46 19 19 85 42 121 42
18 0 21 5 19 28 -6 54 -12 55 -231 53 -111 -1 -210 -4 -219 -7 -13 -4 -18 -16
-18 -39 0 -29 3 -33 33 -38 75 -13 97 -20 97 -28 0 -5 7 -9 16 -9 8 0 12 -4 9
-10 -3 -5 -1 -10 4 -10 6 0 11 -16 11 -35 0 -19 5 -35 10 -35 6 0 10 -78 10
-215 0 -137 -4 -215 -10 -215 -5 0 -10 -12 -10 -27 0 -49 -70 -123 -116 -123
-8 0 -14 -4 -14 -10 0 -6 -40 -10 -100 -10 -55 0 -100 4 -100 9 0 5 -11 12
-24 15 -14 3 -27 15 -31 25 -3 11 -12 22 -20 25 -8 3 -15 12 -15 20 0 8 -6 16
-12 18 -10 4 -14 71 -16 279 -4 255 -3 275 15 295 24 27 77 47 102 39 19 -6
21 -2 21 42 l0 49 -223 0 c-165 0 -227 -4 -235 -13z"/>
<path d="M13949 2716 c-5 -6 -9 -25 -9 -43 0 -28 3 -33 24 -33 14 0 28 -4 31
-10 3 -5 19 -10 35 -10 17 0 31 -7 36 -17 5 -10 10 -159 12 -332 4 -344 1
-361 -48 -361 -15 0 -41 -3 -58 -6 -26 -5 -31 -11 -34 -43 -3 -20 0 -39 6 -43
6 -5 117 -7 246 -5 l235 2 3 42 3 41 -58 8 c-97 12 -93 -4 -93 363 0 289 2
318 18 332 29 25 78 40 105 33 26 -6 27 -4 27 34 0 23 -5 44 -10 47 -17 10
-460 11 -471 1z"/>
</g>
</svg>
